<?xml version="1.0" standalone="no"?>
<!DOCTYPE svg PUBLIC "-//W3C//DTD SVG 20010904//EN"
 "http://www.w3.org/TR/2001/REC-SVG-20010904/DTD/svg10.dtd">
<svg version="1.0" xmlns="http://www.w3.org/2000/svg"
 width="498.000000pt" height="498.000000pt" viewBox="0 0 498.000000 498.000000"
 preserveAspectRatio="xMidYMid meet">
<metadata>
Created by potrace 1.11, written by Peter Selinger 2001-2013
</metadata>
<g transform="translate(0.000000,498.000000) scale(0.100000,-0.100000)"
fill="#000000" stroke="none">
<path d="M1589 4936 c-99 -29 -162 -63 -250 -134 -91 -72 -124 -110 -207 -232
-108 -157 -204 -380 -261 -605 -23 -93 -59 -264 -65 -315 -8 -69 -17 -135 -22
-160 -2 -14 -6 -63 -9 -110 -4 -47 -8 -110 -10 -140 -10 -130 -4 -500 10 -670
10 -115 16 -174 20 -210 3 -19 7 -57 10 -85 6 -45 35 -242 51 -335 3 -19 16
-89 30 -155 13 -66 27 -132 29 -147 3 -15 26 -107 51 -205 24 -98 47 -187 49
-198 10 -42 113 -376 118 -381 9 -9 136 42 282 111 140 67 375 202 375 215 0
5 -22 68 -49 142 -55 149 -150 443 -180 558 -56 214 -69 266 -96 390 -2 9 -15
75 -20 100 -27 136 -58 341 -70 460 -21 217 -27 585 -11 745 35 363 117 631
247 802 48 64 104 103 158 110 33 5 54 -1 104 -25 121 -60 256 -226 377 -465
l45 -87 70 -21 c39 -11 143 -44 233 -74 l163 -54 -7 32 c-11 50 -92 284 -126
362 -233 539 -533 812 -882 804 -50 -1 -112 -10 -157 -23z"/>
<path d="M1636 3777 c-4 -24 -9 -55 -11 -68 -20 -123 -29 -265 -29 -457 1 -89
3 -164 6 -167 2 -2 21 -7 42 -11 21 -3 48 -8 60 -10 11 -2 37 -7 56 -10 56 -8
142 -24 185 -34 34 -8 213 -47 248 -54 44 -10 75 -18 237 -62 545 -149 1054
-372 1430 -628 41 -28 82 -56 90 -63 202 -157 279 -230 402 -381 32 -40 98
-157 118 -209 26 -70 26 -148 0 -191 -35 -56 -154 -117 -270 -136 -19 -3 -46
-9 -60 -12 -14 -4 -117 -7 -229 -8 l-203 -1 -86 -80 c-94 -87 -164 -150 -229
-208 l-42 -36 37 -10 c20 -6 53 -13 72 -16 19 -3 62 -12 95 -20 33 -7 85 -16
115 -20 30 -4 57 -8 60 -10 29 -17 423 -26 530 -12 30 4 71 9 90 12 75 10 234
69 308 114 94 58 131 89 189 164 133 172 164 403 87 649 -124 394 -519 819
-1094 1178 -197 123 -469 267 -680 360 -52 23 -108 48 -125 55 -189 83 -789
287 -944 320 -9 2 -99 24 -201 49 -275 66 -246 65 -254 13z"/>
<path d="M3314 2261 c-139 -180 -430 -494 -656 -706 -176 -165 -301 -271 -471
-396 -67 -50 -130 -97 -140 -105 -9 -7 -19 -14 -21 -14 -2 0 -39 -24 -82 -53
-418 -283 -911 -467 -1207 -452 -105 5 -141 14 -202 49 -140 82 -78 370 153
718 28 43 42 74 38 84 -7 19 -67 285 -87 387 -7 37 -15 67 -19 67 -3 0 -35
-32 -71 -72 -35 -39 -69 -76 -74 -82 -43 -46 -159 -200 -219 -291 -171 -260
-246 -462 -250 -675 -3 -147 24 -253 96 -366 104 -167 306 -284 548 -319 73
-11 268 -13 365 -4 385 37 871 220 1360 512 108 65 386 248 405 267 3 3 32 25
65 49 61 45 286 221 295 231 3 3 34 30 69 60 36 30 72 62 81 70 9 8 61 56 115
105 132 119 415 404 535 539 l25 28 -30 25 c-134 112 -327 241 -496 331 l-95
52 -30 -39z"/>
</g>
</svg>
